<svg width="69" height="69" viewBox="0 0 69 69" fill="none" xmlns="http://www.w3.org/2000/svg">
<path fill-rule="evenodd" clip-rule="evenodd" d="M34.5 68C53.0015 68 68 53.0015 68 34.5C68 15.9985 53.0015 1 34.5 1C15.9985 1 1 15.9985 1 34.5C1 53.0015 15.9985 68 34.5 68ZM34.5 69C53.5538 69 69 53.5538 69 34.5C69 15.4462 53.5538 0 34.5 0C15.4462 0 0 15.4462 0 34.5C0 53.5538 15.4462 69 34.5 69Z" fill="#6D7D7D"/>
<mask id="path-2-inside-1_101_185" fill="white">
<path fill-rule="evenodd" clip-rule="evenodd" d="M30.5 46.2583L47 36.732C48.3333 35.9622 48.3333 34.0377 47 33.2679L30.5 23.7417C29.1667 22.9719 27.5 23.9341 27.5 25.4737L27.5 44.5263C27.5 46.0659 29.1667 47.0281 30.5 46.2583ZM47.5 37.5981C49.5 36.4434 49.5 33.5566 47.5 32.4019L31 22.8756C29 21.7209 26.5 23.1643 26.5 25.4737L26.5 44.5263C26.5 46.8357 29 48.279 31 47.1244L47.5 37.5981Z"/>
</mask>
<path fill-rule="evenodd" clip-rule="evenodd" d="M30.5 46.2583L47 36.732C48.3333 35.9622 48.3333 34.0377 47 33.2679L30.5 23.7417C29.1667 22.9719 27.5 23.9341 27.5 25.4737L27.5 44.5263C27.5 46.0659 29.1667 47.0281 30.5 46.2583ZM47.5 37.5981C49.5 36.4434 49.5 33.5566 47.5 32.4019L31 22.8756C29 21.7209 26.5 23.1643 26.5 25.4737L26.5 44.5263C26.5 46.8357 29 48.279 31 47.1244L47.5 37.5981Z" fill="white"/>
<path d="M47 36.732L46.5 35.866L46.5 35.866L47 36.732ZM30.5 46.2583L30 45.3923L30 45.3923L30.5 46.2583ZM47 33.2679L46.5 34.134L46.5 34.134L47 33.2679ZM30.5 23.7417L31 22.8756L31 22.8756L30.5 23.7417ZM47.5 32.4019L47 33.2679L47 33.2679L47.5 32.4019ZM47.5 37.5981L48 38.4641L48 38.4641L47.5 37.5981ZM31 22.8756L31.5 22.0096L31.5 22.0096L31 22.8756ZM31 47.1244L31.5 47.9904L31.5 47.9904L31 47.1244ZM46.5 35.866L30 45.3923L31 47.1244L47.5 37.5981L46.5 35.866ZM46.5 34.134C47.1667 34.5189 47.1667 35.4811 46.5 35.866L47.5 37.5981C49.5 36.4434 49.5 33.5566 47.5 32.4019L46.5 34.134ZM30 24.6077L46.5 34.134L47.5 32.4019L31 22.8756L30 24.6077ZM28.5 25.4737C28.5 24.7039 29.3333 24.2228 30 24.6077L31 22.8756C29 21.7209 26.5 23.1643 26.5 25.4737L28.5 25.4737ZM28.5 44.5263L28.5 25.4737L26.5 25.4737L26.5 44.5263L28.5 44.5263ZM30 45.3923C29.3333 45.7772 28.5 45.2961 28.5 44.5263L26.5 44.5263C26.5 46.8357 29 48.2791 31 47.1243L30 45.3923ZM47 33.2679C48.3333 34.0377 48.3333 35.9622 47 36.732L48 38.4641C50.6667 36.9245 50.6667 33.0755 48 31.5359L47 33.2679ZM30.5 23.7417L47 33.2679L48 31.5359L31.5 22.0096L30.5 23.7417ZM27.5 25.4737C27.5 23.9341 29.1667 22.9719 30.5 23.7417L31.5 22.0096C28.8333 20.47 25.5 22.3945 25.5 25.4737L27.5 25.4737ZM27.5 44.5263L27.5 25.4737L25.5 25.4737L25.5 44.5263L27.5 44.5263ZM30.5 46.2583C29.1667 47.0281 27.5 46.0659 27.5 44.5263L25.5 44.5263C25.5 47.6055 28.8333 49.53 31.5 47.9904L30.5 46.2583ZM47 36.732L30.5 46.2583L31.5 47.9904L48 38.4641L47 36.732Z" fill="black" mask="url(#path-2-inside-1_101_185)"/>
<path d="M47 36.732L46.5 35.866L46.5 35.866L47 36.732ZM30.5 46.2583L30 45.3923L30 45.3923L30.5 46.2583ZM47 33.2679L46.5 34.134L46.5 34.134L47 33.2679ZM30.5 23.7417L31 22.8756L31 22.8756L30.5 23.7417ZM47.5 32.4019L47 33.2679L47 33.2679L47.5 32.4019ZM47.5 37.5981L48 38.4641L48 38.4641L47.5 37.5981ZM31 22.8756L31.5 22.0096L31.5 22.0096L31 22.8756ZM31 47.1244L31.5 47.9904L31.5 47.9904L31 47.1244ZM46.5 35.866L30 45.3923L31 47.1244L47.5 37.5981L46.5 35.866ZM46.5 34.134C47.1667 34.5189 47.1667 35.4811 46.5 35.866L47.5 37.5981C49.5 36.4434 49.5 33.5566 47.5 32.4019L46.5 34.134ZM30 24.6077L46.5 34.134L47.5 32.4019L31 22.8756L30 24.6077ZM28.5 25.4737C28.5 24.7039 29.3333 24.2228 30 24.6077L31 22.8756C29 21.7209 26.5 23.1643 26.5 25.4737L28.5 25.4737ZM28.5 44.5263L28.5 25.4737L26.5 25.4737L26.5 44.5263L28.5 44.5263ZM30 45.3923C29.3333 45.7772 28.5 45.2961 28.5 44.5263L26.5 44.5263C26.5 46.8357 29 48.2791 31 47.1243L30 45.3923ZM47 33.2679C48.3333 34.0377 48.3333 35.9622 47 36.732L48 38.4641C50.6667 36.9245 50.6667 33.0755 48 31.5359L47 33.2679ZM30.5 23.7417L47 33.2679L48 31.5359L31.5 22.0096L30.5 23.7417ZM27.5 25.4737C27.5 23.9341 29.1667 22.9719 30.5 23.7417L31.5 22.0096C28.8333 20.47 25.5 22.3945 25.5 25.4737L27.5 25.4737ZM27.5 44.5263L27.5 25.4737L25.5 25.4737L25.5 44.5263L27.5 44.5263ZM30.5 46.2583C29.1667 47.0281 27.5 46.0659 27.5 44.5263L25.5 44.5263C25.5 47.6055 28.8333 49.53 31.5 47.9904L30.5 46.2583ZM47 36.732L30.5 46.2583L31.5 47.9904L48 38.4641L47 36.732Z" fill="black" fill-opacity="0.2" mask="url(#path-2-inside-1_101_185)"/>
</svg>
